<?xml version="1.0" encoding="UTF-8" standalone="no"?>
<!-- Created with Inkscape (http://www.inkscape.org/) -->
<svg
   xmlns:svg="http://www.w3.org/2000/svg"
   xmlns="http://www.w3.org/2000/svg"
   version="1.0"
   width="885.82672"
   height="137.08661"
   id="svg2697">
  <defs
     id="defs2699">
    <clipPath
       id="clp24">
      <path
         d="M 0.06,737.1 L 581.22,737.1 L 581.22,0.06 L 0.06,0.06 L 0.06,737.1 z "
         id="path10223" />
    </clipPath>
  </defs>
  <path
     d="M 86.43307,20.881395 C 85.675122,28.675622 76.769238,40.158528 66.309561,40.739622 C 55.534073,41.118595 44.101697,30.583124 32.846175,30.987363 C 26.833124,31.202114 19.822108,33.741239 19.531562,41.232288 C 19.455767,47.232706 24.432956,49.986582 31.974535,49.885523 C 38.379192,49.481284 39.80666,48.660174 44.872277,45.539956 C 42.345785,49.885523 37.355963,52.626766 31.924005,53.119432 C 22.917061,52.929946 18.533598,47.131646 17.750385,40.550135 C 17.156659,32.945394 24.357162,18.632817 40.160369,18.645449 C 54.270827,18.632817 65.614776,27.437641 73.611123,27.627128 C 79.232568,27.538701 82.693862,24.456381 86.43307,20.881395"
     style="fill:#000000;fill-rule:nonzero;stroke:none"
     id="path10227" />
  <path
     d="M 70.945674,53.561569 C 74.305908,53.599466 77.451391,56.605991 77.451391,60.698908 C 77.451391,64.387587 74.179584,67.305685 70.920409,67.293053 C 67.48438,67.28042 62.292439,63.515947 65.981117,57.806075 C 65.981117,57.806075 60.574424,60.24414 62.102952,66.446678 C 67.193833,70.324843 74.394336,76.375791 72.9795,86.519657 C 71.38781,97.901503 54.561373,100.65538 51.832762,110.67292 C 48.876766,103.54821 44.379611,100.20061 38.581312,100.26377 C 28.71536,100.36483 22.879164,108.29802 23.119181,114.10895 C 23.523419,123.26748 29.422778,127.13302 42.143665,126.8172 C 54.157135,126.21085 61.382902,121.0189 66.296929,112.9594 C 64.730504,118.6819 58.426906,132.02178 41.335188,132.2239 C 25.254066,132.02178 20.062125,120.21043 19.872638,111.65825 C 20.074758,95.77925 32.681953,89.46302 41.234128,89.36196 C 50.443192,89.248268 54.359254,93.442245 59.753315,99.038425 C 59.753315,99.038425 62.70931,92.59587 59.285914,86.734409 C 53.058111,76.072612 42.787921,78.245395 40.413018,65.044475 C 38.442355,54.041602 53.437085,42.457636 57.921608,41.118595 C 54.472946,44.718847 48.876766,48.698071 52.426488,57.717648 C 53.967648,61.671608 60.283878,64.854988 60.283878,64.854988 C 60.182818,61.469489 63.113549,53.447876 70.945674,53.561569"
     style="fill:#000000;fill-rule:nonzero;stroke:none"
     id="path10229" />
  <path
     d="M 83.237058,59.814636 L 91.435524,48.218038 C 91.435524,48.218038 97.928609,49.127575 101.37727,57.224982 L 108.05984,48.48332 C 108.05984,48.48332 113.08756,56.441769 119.97225,48.963353 C 119.97225,48.963353 116.73834,61.709505 108.45145,62.075847 C 105.48282,62.202171 102.13522,59.738841 102.13522,59.738841 L 102.12259,94.831815 C 102.12259,94.831815 101.54149,98.9121 107.2261,100.18798 C 107.2261,100.18798 101.55412,106.04944 97.701224,111.77194 C 92.862992,105.84732 87.077326,101.14805 87.077326,101.14805 C 87.077326,101.14805 89.742775,100.18798 89.76804,96.284548 L 89.793304,62.063214 C 89.793304,62.063214 89.199579,56.732316 83.237058,59.814636"
     style="fill:#000000;fill-rule:nonzero;stroke:none"
     id="path10231" />
  <path
     d="M 142.42013,48.584379 C 142.42013,48.584379 133.31213,56.214385 125.32841,59.006159 C 119.11324,61.178942 119.27747,67.090933 119.27747,67.090933 L 119.30273,99.076322 C 119.30273,99.076322 117.82473,105.20307 130.58352,112.13829 C 130.58352,112.13829 134.24693,105.58204 139.47677,100.25114 C 139.47677,100.25114 140.32314,108.34855 148.81216,111.50666 C 148.81216,111.50666 151.25022,104.84936 156.56849,100.8954 C 154.16832,99.821637 150.89651,98.533126 150.88388,93.442245 L 150.79545,62.164274 C 150.79545,62.164274 150.53017,60.96419 152.90507,58.399801 L 142.42013,48.584379 z M 134.10797,56.934435 C 131.44253,58.210314 130.65931,60.686276 130.74774,63.149606 L 130.74774,93.745424 C 130.65931,96.4993 132.3268,99.758475 135.19437,99.758475 C 139.13569,99.758475 139.16096,95.324481 139.16096,95.324481 L 139.13569,63.541212 C 139.13569,63.541212 139.43887,60.484157 134.10797,56.934435"
     style="fill:#000000;fill-rule:evenodd;stroke:none"
     id="path10233" />
  <path
     d="M 170.70421,48.950721 C 166.73762,54.685857 161.34356,61.052617 161.34356,61.052617 C 161.34356,61.052617 167.06606,61.810565 166.83868,65.979277 L 166.91447,95.981369 C 166.87658,100.57958 164.00901,100.80697 164.00901,100.80697 C 164.00901,100.80697 169.52939,105.31676 173.18017,111.9488 C 173.18017,111.9488 177.18466,104.92515 181.53023,100.66801 C 181.53023,100.66801 178.5995,100.80697 178.5995,95.665558 L 178.51107,66.067704 C 178.58687,64.29916 180.87334,61.431591 182.85664,61.431591 C 186.91166,61.431591 187.68224,64.690766 187.59381,67.267788 L 187.59381,97.939401 C 187.50538,102.09548 187.51801,106.27682 195.62805,111.80984 C 195.62805,111.80984 199.82203,105.08937 205.0645,100.63011 C 205.0645,100.63011 199.46832,101.19858 199.46832,94.869713 L 199.40516,63.907553 C 199.40516,63.907553 199.40516,59.802004 200.88316,58.804039 C 200.88316,58.804039 195.0217,54.407943 190.49928,48.723336 L 178.81425,61.722138 C 176.74253,50.504513 170.70421,48.950721 170.70421,48.950721"
     style="fill:#000000;fill-rule:nonzero;stroke:none"
     id="path10235" />
  <path
     d="M 235.534,26.755488 C 234.38444,25.353285 232.84328,27.475539 232.84328,27.475539 L 226.84286,34.82763 L 226.79233,30.848405 C 226.66601,27.614496 228.05558,24.317424 231.26422,21.790932 C 231.26422,21.790932 222.08043,20.969822 219.13706,32.275873 C 219.13706,32.275873 215.6505,30.115723 213.38929,30.330475 C 214.09671,31.757943 214.12198,33.905461 214.12198,33.905461 L 214.12198,50.731898 L 211.05229,50.706633 L 211.05229,56.125958 L 214.26093,56.100693 L 214.19777,95.943472 C 214.22304,99.606885 211.45653,100.64275 211.45653,100.64275 C 211.45653,100.64275 217.29272,104.72303 221.15826,112.87097 C 221.15826,112.87097 224.51849,105.30412 232.86855,101.13541 C 232.86855,101.13541 226.86813,99.910064 226.76707,95.223422 L 226.79233,56.113325 L 232.09797,56.125958 L 232.09797,50.706633 L 226.86813,50.719265 L 226.8555,49.809728 L 234.22022,43.354541 C 241.97655,35.711903 237.75731,28.081897 235.534,26.755488 z M 226.75444,36.52038 L 226.75444,48.470687 C 226.75444,48.470687 234.87711,42.419739 226.75444,36.52038"
     style="fill:#000000;fill-rule:evenodd;stroke:none"
     id="path10237" />
  <path
     d="M 263.88124,19.428662 C 263.88124,19.428662 258.6514,35.017117 243.54298,35.724535 L 243.5935,49.809728 L 239.94272,49.809728 L 239.94272,55.633292 L 243.47981,55.645924 L 243.54298,134.523 L 246.06947,134.523 L 246.06947,119.45248 C 246.06947,119.45248 245.82945,112.89623 249.87184,112.18882 L 253.33313,111.67088 C 253.33313,111.67088 256.28913,111.70878 256.21333,108.44961 L 256.15017,55.709087 L 262.30218,55.671189 L 262.30218,49.834993 L 256.37755,49.809728 L 256.36492,32.073754 C 256.36492,32.073754 271.38492,44.794641 276.76634,20.666643 C 276.76634,20.666643 270.70276,30.482064 263.88124,19.428662"
     style="fill:#000000;fill-rule:nonzero;stroke:none"
     id="path10239" />
  <path
     d="M 277.12005,48.609644 C 272.68606,55.330113 267.73414,58.70298 267.73414,58.70298 C 267.73414,58.70298 271.77652,59.498825 271.86495,63.983348 L 272.06707,97.674119 C 272.0797,101.22384 269.79323,101.95652 269.79323,101.95652 C 274.25249,105.58204 279.69708,112.44146 279.69708,112.44146 C 279.69708,112.44146 288.89351,101.42596 293.44119,98.558391 C 291.8116,106.47894 301.79125,112.12565 301.79125,112.12565 L 309.80023,101.02172 C 309.80023,101.02172 305.53046,99.935329 305.34097,95.299216 L 305.25254,63.339093 C 305.34097,59.688312 307.62744,57.907135 307.62744,57.907135 C 301.48807,54.054234 299.53004,48.015919 299.53004,48.015919 C 296.25823,54.951139 290.42203,58.804039 290.42203,58.804039 C 290.42203,58.804039 293.11275,60.585216 293.11275,63.149606 L 293.17591,93.934911 C 293.20118,96.309813 291.63475,99.670048 288.26188,99.670048 C 285.49537,99.670048 284.11844,96.309813 283.91632,94.831815 L 283.72683,60.901028 C 283.72683,53.283654 277.12005,48.609644 277.12005,48.609644"
     style="fill:#000000;fill-rule:nonzero;stroke:none"
     id="path10241" />
  <path
     d="M 315.88907,60.307302 L 324.17597,48.672807 C 324.17597,48.672807 329.5195,50.656103 332.23548,57.995562 L 337.30109,48.559114 C 337.30109,48.559114 340.81292,55.292216 345.9417,49.140208 C 345.9417,49.140208 346.52279,64.14757 338.34959,64.223365 C 335.03988,64.24863 332.65235,61.191574 332.65235,61.191574 L 332.63972,94.831815 C 332.63972,94.831815 331.83124,101.40069 339.37282,100.98382 C 339.37282,100.98382 332.50076,105.93575 329.24158,112.25198 C 324.40335,106.32735 317.73341,101.77967 317.73341,101.77967 C 317.73341,101.77967 320.90416,100.93329 321.06838,97.26988 L 320.95469,65.928747 C 320.95469,65.928747 321.33366,61.178942 315.88907,60.307302"
     style="fill:#000000;fill-rule:nonzero;stroke:none"
     id="path10243" />
  <path
     d="M 352.91481,50.453983 L 350.42622,50.428718 L 350.41359,56.580726 L 353.00324,56.555462 L 353.1422,97.939401 C 353.26852,100.70591 351.17153,102.09548 351.17153,102.09548 C 351.17153,102.09548 355.95924,105.80942 360.4185,111.4435 C 365.06724,104.86199 371.64875,101.31227 371.64875,101.31227 C 371.64875,101.31227 365.06724,100.60485 365.06724,96.65089 L 364.97881,56.479667 L 371.434,56.517564 L 371.40874,50.428718 L 365.06724,50.453983 L 365.00408,32.111651 L 352.96534,36.495115 L 352.91481,50.453983"
     style="fill:#000000;fill-rule:nonzero;stroke:none"
     id="path10245" />
  <path
     d="M 400.3118,48.344363 C 395.83991,52.904681 392.39125,53.15733 389.48579,54.685857 C 384.49596,57.326042 377.56074,59.132483 377.62391,68.455239 L 377.6618,96.082429 C 377.76286,107.83062 387.50249,108.63909 393.37658,111.83511 C 397.31791,104.36932 405.83219,98.24258 405.83219,98.24258 L 404.53105,97.446735 C 404.53105,97.446735 401.46136,100.76907 397.40634,100.60485 C 389.89002,100.3143 389.81423,92.469545 389.81423,92.469545 L 389.81423,80.443443 C 389.81423,80.443443 399.70545,76.224202 404.93528,70.678552 C 407.18386,68.278384 407.99234,66.674062 408.0934,63.313828 C 408.27025,57.528161 403.54571,53.599466 400.3118,48.344363 z M 391.22906,56.264915 C 391.22906,56.264915 389.71317,57.123922 389.81423,63.932818 L 389.8016,79.369684 C 389.8016,79.369684 405.78166,72.990292 391.22906,56.264915"
     style="fill:#000000;fill-rule:evenodd;stroke:none"
     id="path10247" />
  <path
     d="M 410.48093,58.564023 C 414.3591,55.506967 419.44998,47.851697 419.44998,47.851697 C 419.44998,47.851697 424.02293,49.493916 427.38317,57.439734 C 430.13704,53.864748 432.90355,47.763269 432.90355,47.763269 C 432.90355,47.763269 437.9818,56.618624 443.80536,47.750637 C 443.80536,47.750637 442.56738,62.732734 434.00257,63.541212 C 430.7055,63.857023 427.69898,59.57462 427.69898,59.57462 L 427.69898,93.897013 C 427.69898,99.505826 434.53314,100.41536 434.53314,100.41536 C 434.53314,100.41536 427.49686,104.29353 424.02293,111.43087 C 419.1847,105.50624 413.62642,100.93329 413.62642,100.93329 C 413.62642,100.93329 415.69814,100.52905 415.84973,96.865641 L 415.88763,64.122305 C 415.88763,58.008194 410.48093,58.564023 410.48093,58.564023"
     style="fill:#000000;fill-rule:nonzero;stroke:none"
     id="path10249" />
  <path
     d="M 481.79117,38.579471 C 481.79117,38.579471 477.9509,41.207023 474.89385,41.207023 C 471.97575,41.207023 469.66401,38.667898 469.67664,36.078244 C 469.68927,32.288506 473.75693,30.381004 477.54666,30.381004 C 485.25246,30.381004 486.81889,41.068066 486.81889,41.068066 L 468.7671,92.949579 C 459.59594,93.050639 451.89014,102.03232 451.9912,112.8836 C 452.09226,124.12649 461.36448,132.13547 473.50428,132.05967 C 492.17505,131.94598 497.69544,114.27317 497.69544,114.27317 C 494.04466,118.11344 490.54547,126.66561 473.11267,126.58982 C 464.38364,126.55192 454.8714,122.95167 454.66928,115.35956 C 454.55559,111.11506 459.12854,106.76949 464.62366,106.76949 C 471.14201,106.76949 475.08333,111.30454 475.08333,111.30454 L 488.44848,97.017231 L 487.41262,95.88031 L 484.16607,99.101587 C 479.32784,93.846483 471.62204,93.012741 471.62204,93.012741 L 477.16769,76.767398 L 495.08052,76.792662 L 501.21989,102.81553 C 503.11476,109.63706 506.76554,107.86851 512.93018,112.46673 L 519.72645,98.659451 C 519.72645,98.659451 514.45871,100.06165 512.79123,94.03597 L 498.40286,32.755907 C 498.40286,32.755907 495.51002,17.647485 480.80584,17.634852 C 472.35472,17.634852 464.73735,23.369989 464.73735,32.162181 C 464.73735,37.821523 469.36083,42.823978 474.98227,42.823978 C 479.4289,42.823978 481.79117,38.579471 481.79117,38.579471 z M 487.90528,45.615751 L 478.74675,72.421831 L 494.05729,72.459729 L 487.90528,45.615751"
     style="fill:#000000;fill-rule:evenodd;stroke:none"
     id="path10251" />
  <path
     d="M 525.13314,95.918207 C 525.25947,98.697348 521.26761,99.960594 521.26761,99.960594 C 521.26761,99.960594 526.90169,105.19043 531.75255,112.22671 C 535.66861,104.33143 542.19959,100.94593 542.19959,100.94593 C 542.19959,100.94593 537.39926,100.60485 537.39926,96.65089 L 537.39926,24.064774 L 525.13314,29.900971 L 525.13314,95.918207"
     style="fill:#000000;fill-rule:nonzero;stroke:none"
     id="path10253" />
  <path
     d="M 551.68657,95.577131 C 551.67394,98.773143 549.04639,100.37747 549.04639,100.37747 C 549.04639,100.37747 554.52888,105.88522 558.53337,112.32777 C 562.62628,104.00298 569.20779,100.8954 569.20779,100.8954 C 569.20779,100.8954 563.91479,100.60485 563.91479,96.65089 L 563.91479,22.978383 L 551.68657,29.926236 L 551.68657,95.577131"
     style="fill:#000000;fill-rule:nonzero;stroke:none"
     id="path10255" />
  <path
     d="M 601.13002,47.624312 C 587.17115,57.692383 577.55785,55.153259 577.44416,64.741296 L 577.55785,98.836305 C 577.53259,105.08937 582.5603,108.44961 587.97963,112.01196 L 597.80768,100.3522 L 597.83295,106.80739 C 597.75715,114.37423 603.3786,113.96999 603.29017,121.27155 C 603.22701,126.70351 598.91934,129.29317 594.59904,129.2679 C 586.93114,129.23 584.99837,124.88444 584.99837,124.88444 C 584.99837,124.88444 585.12469,125.51606 587.07009,125.47816 C 590.8472,125.40237 593.2221,123.25485 593.20947,119.62933 C 593.1842,116.15541 590.45559,113.78051 587.05746,113.84367 C 583.46984,113.90683 580.84229,116.63544 580.85492,119.67986 C 580.88019,124.53073 583.74776,130.94802 595.45805,130.89749 C 607.13044,130.85959 615.11415,122.0674 615.11415,115.17008 C 615.11415,109.78865 610.08643,108.5254 610.08643,102.28497 L 609.78326,60.597849 C 609.75799,58.109254 611.85498,56.088061 611.85498,56.088061 C 605.48822,52.500442 601.13002,47.624312 601.13002,47.624312 z M 597.68136,61.507386 L 591.56725,55.304848 C 591.56725,55.304848 589.57132,56.479667 589.55869,61.532651 L 589.62185,95.122362 C 589.7987,98.697348 591.03668,100.25114 594.00531,100.16271 C 596.75919,100.07429 597.74452,98.583656 597.74452,94.85708 L 597.68136,61.507386"
     style="fill:#000000;fill-rule:evenodd;stroke:none"
     id="path10257" />
  <path
     d="M 646.27843,47.586415 C 643.03189,50.150804 636.52617,53.725791 633.43122,54.79955 C 622.37782,58.665082 622.23886,60.180978 622.23886,68.455239 L 622.25149,96.587727 C 622.25149,109.19492 632.05428,107.32532 638.35788,111.873 C 639.76008,105.58204 648.52701,98.217315 648.52701,98.217315 L 648.03434,97.661486 C 648.03434,97.661486 645.68471,99.670048 641.62969,99.505826 C 634.11337,99.215279 634.21443,92.469545 634.21443,92.469545 L 634.21443,81.5551 C 634.21443,81.5551 642.90557,76.641073 648.88072,71.006996 C 651.26825,68.758418 651.93777,66.674062 652.03883,63.313828 C 652.21569,57.528161 648.94388,56.151223 646.27843,47.586415 z M 635.84402,55.557497 C 635.84402,55.557497 634.11337,57.123922 634.21443,63.932818 L 634.2018,80.266589 C 634.2018,80.266589 649.13337,75.112545 635.84402,55.557497"
     style="fill:#000000;fill-rule:evenodd;stroke:none"
     id="path10259" />
  <path
     d="M 666.01033,47.523253 L 656.25808,59.132483 C 656.25808,59.132483 661.94268,59.52409 661.94268,63.490682 L 662.09427,96.044532 C 662.03111,100.3143 660.1994,101.29963 660.1994,101.29963 C 660.1994,101.29963 665.01237,105.54414 668.78948,111.99933 C 671.54335,105.74626 677.17743,100.60485 677.17743,100.60485 C 677.17743,100.60485 674.65094,98.394169 674.53725,95.248687 L 674.43619,65.676098 C 674.95412,62.947486 676.71003,61.570548 678.40278,61.507386 C 680.53766,61.444224 682.26831,63.149606 682.382,65.284491 L 682.58412,95.88031 C 682.58412,98.798408 680.77768,100.21324 680.77768,100.21324 C 680.77768,100.21324 685.28747,105.85995 688.39505,112.27724 C 691.80582,104.72303 697.38937,100.56695 697.38937,100.56695 C 697.38937,100.56695 694.38284,98.217315 694.38284,94.162295 L 694.29441,64.589706 C 694.77445,61.962154 696.05032,60.875763 698.05889,60.522054 C 700.11798,60.155713 701.92442,61.73477 702.31602,63.793861 L 702.56867,99.670048 C 702.56867,105.58204 707.50797,108.44961 712.64938,111.55719 C 714.99901,104.89989 720.91101,99.68268 720.91101,99.68268 C 720.91101,99.68268 714.2158,100.3901 714.2158,94.23809 L 714.05158,60.623114 C 714.12738,57.843972 716.41385,56.252283 716.41385,56.252283 C 710.16078,53.473141 705.18359,47.61168 705.18359,47.61168 L 694.07966,61.141045 C 694.58496,54.066867 686.3486,47.813799 686.3486,47.813799 L 674.33513,62.416923 C 673.45085,49.910788 666.01033,47.523253 666.01033,47.523253"
     style="fill:#000000;fill-rule:nonzero;stroke:none"
     id="path10261" />
  <path
     d="M 750.02883,47.447458 C 732.96237,60.585216 727.92202,58.513493 727.92202,65.082372 L 727.93465,99.859534 C 727.93465,107.5527 734.46564,107.37585 740.7566,111.92353 C 743.72523,106.27682 749.35931,101.55228 754.27333,98.103623 L 753.66697,97.446735 C 753.66697,97.446735 750.8752,99.695312 746.80755,99.619518 C 738.49539,99.467928 739.39229,92.469545 739.39229,92.469545 L 739.40493,81.327716 C 739.40493,81.327716 745.89801,77.853789 752.11318,72.434464 C 754.58914,70.274313 756.39559,66.813019 756.54718,63.440152 C 756.85035,57.224982 753.08588,55.734352 750.02883,47.447458 z M 739.77127,56.13859 C 739.77127,56.13859 739.30387,57.123922 739.39229,63.932818 L 739.37966,79.824453 C 741.16084,78.738061 753.38906,72.421831 739.77127,56.13859"
     style="fill:#000000;fill-rule:evenodd;stroke:none"
     id="path10263" />
  <path
     d="M 862.05348,47.030587 C 851.80856,57.490264 838.87292,56.732316 838.65817,67.090933 L 838.72133,99.859534 C 838.97398,106.01154 844.4312,107.19899 850.7348,111.74668 C 855.80041,104.29353 862.00295,100.73117 866.90435,97.282513 L 866.29799,96.625625 C 866.29799,96.625625 861.37133,100.47852 857.30368,100.40273 C 848.99152,100.25114 850.17897,92.469545 850.17897,92.469545 L 850.17897,80.443443 C 850.17897,80.443443 855.47197,77.866422 862.89986,72.548156 C 865.56531,70.628022 867.92758,67.861513 868.0918,64.501279 C 868.38234,58.286109 865.18633,57.490264 862.05348,47.030587 z M 851.49275,55.645924 C 851.49275,55.645924 850.07791,57.123922 850.17897,63.932818 L 850.16634,79.255992 C 857.30368,76.148407 860.97972,64.273895 851.49275,55.645924"
     style="fill:#000000;fill-rule:evenodd;stroke:none"
     id="path10265" />
  <path
     d="M 796.06151,47.889594 L 787.9641,58.677715 C 787.9641,58.677715 794.01505,59.536722 793.78767,63.743331 L 793.90136,96.625625 C 794.01505,98.14152 791.74121,100.30167 791.74121,100.30167 C 791.74121,100.30167 796.93315,105.80942 798.96698,111.53193 C 802.85777,105.48098 808.46659,100.30167 808.46659,100.30167 C 808.46659,100.30167 805.44743,98.684716 805.44743,95.551866 L 805.44743,65.78979 C 806.30644,63.200136 807.92339,61.482121 809.96985,61.368429 C 811.91525,61.267369 814.17646,63.099076 813.96171,65.145534 L 814.06277,97.598324 C 814.06277,107.74219 823.01918,111.30454 823.01918,111.30454 L 830.68708,100.18798 C 830.68708,100.18798 825.70989,100.18798 825.60883,96.410873 L 825.49514,61.7853 C 825.82359,58.677715 827.55423,57.06076 827.55423,57.06076 C 821.62961,54.685857 817.52406,49.178105 817.52406,49.178105 L 805.77587,62.126376 C 805.23268,50.365556 796.06151,47.889594 796.06151,47.889594"
     style="fill:#000000;fill-rule:nonzero;stroke:none"
     id="path10267" />
  <path
     d="M 771.47874,48.003286 C 768.24483,52.854151 761.34751,57.9324 761.34751,57.9324 C 761.34751,57.9324 766.08468,58.60192 766.08468,62.581145 L 766.08468,96.196121 C 766.18574,99.000527 763.38134,100.73117 763.38134,100.73117 C 763.38134,100.73117 768.24483,105.91048 771.36505,111.53193 C 775.14216,105.69573 780.3341,100.61748 780.3341,100.61748 C 780.3341,100.61748 777.61812,98.899467 777.73181,96.095061 L 777.63075,62.341128 C 777.73181,59.208278 780.22041,57.603956 780.22041,57.603956 C 775.58429,53.82685 771.47874,48.003286 771.47874,48.003286"
     style="fill:#000000;fill-rule:nonzero;stroke:none"
     id="path10269" />
  <path
     d="M 765.02356,29.559895 C 765.02356,25.871216 768.01745,22.877323 771.70613,22.877323 C 775.39481,22.877323 778.3887,25.871216 778.3887,29.559895 C 778.3887,33.248573 775.39481,36.242466 771.70613,36.242466 C 768.01745,36.242466 765.02356,33.248573 765.02356,29.559895"
     style="fill:#000000;fill-rule:nonzero;stroke:none"
     id="path10271" />
</svg>
