<?xml version="1.0" encoding="UTF-8" standalone="no"?>
<svg
   xmlns:svg="http://www.w3.org/2000/svg"
   xmlns="http://www.w3.org/2000/svg"
   width="714"
   height="70"
   viewBox="0 0 714 70"
   id="svg3061">
  <title
     id="title3067">Logo Spiegel Online</title>
  <path
     d="m 659.4776,65.1659 h 2.6106 c 4.2535,0 4.9309,-0.4839 4.9309,-4.9309 V 9.7651 c 0,-4.4476 -0.6774,-4.9309 -4.9309,-4.9309 h -2.6106 V 0.9666 c 2.2235,0.0968 4.35,0.1936 6.477,0.29 2.127,0.0964 4.2547,0.0968 6.4782,0.0968 h 21.7548 c 4.9309,0 9.5715,-0.1936 14.0185,-0.3871 l 0.7742,16.05 h -4.0611 C 703.3719,6.9615 701.8247,5.9943 693.6069,5.9943 h -16.9195 v 24.7513 h 8.7985 c 12.0853,0 12.9552,-0.193 12.9552,-5.4142 v -1.9337 h 3.8675 v 21.078 h -3.8676 v -1.0646 c 0,-7.5409 -1.5473,-7.9275 -9.6683,-8.0242 h -12.0853 v 28.6188 h 20.2064 c 6.9621,0 8.219,-0.4839 12.28,-11.5059 h 4.2535 l -3.48,16.5336 c -13.15,-0.1936 -26.2986,-0.3871 -35.3874,-0.3871 -7.7339,0 -11.795,0.1936 -15.0819,0.3871 v -3.8675 z"
     id="path3069"
     style="fill:#961618" />
  <path
     d="M 596.8907,12.5692 H 596.6 v 47.6657 c 0,4.447 0.6763,4.9309 4.9309,4.9309 h 3.3837 v 3.8675 c -3.5772,-0.1936 -7.2512,-0.3871 -10.8284,-0.3871 -3.5772,0 -7.2512,0.1936 -10.8284,0.3871 v -3.8674 h 3.3837 c 4.2535,0 4.9309,-0.4839 4.9309,-4.9309 V 9.7651 c 0,-4.4476 -0.6774,-4.9309 -4.9309,-4.9309 h -3.3837 V 0.9666 c 2.9,0.1936 5.8975,0.3871 8.8941,0.3871 2.9966,0 5.9955,-0.1936 8.8952,-0.3871 a 18.5814,18.5814 0 0 0 2.5138,4.3508 L 639.141,52.5 h 0.1936 V 9.7651 c 0,-4.4476 -0.6763,-4.9309 -4.9309,-4.9309 H 631.02 V 0.9666 c 3.674,0.1936 7.2512,0.3871 10.8284,0.3871 3.5772,0 7.1556,-0.1937 10.8296,-0.3871 v 3.8675 h -3.3848 c -4.2535,0 -4.9309,0.4833 -4.9309,4.9309 V 70 h -4.2535 z"
     id="path3071"
     style="fill:#961618" />
  <path
     d="m 549.1611,65.1659 h 3.3837 c 4.2535,0 4.9309,-0.4839 4.9309,-5.0277 V 9.7651 c 0,-4.4476 -0.6774,-4.9309 -4.9309,-4.9309 h -3.3837 V 0.9666 c 4.35,0.1936 8.7985,0.3871 13.1487,0.3871 4.3502,0 8.7985,-0.1937 13.1487,-0.3871 v 3.8675 h -3.3837 c -4.2535,0 -4.9309,0.4833 -4.9309,4.9309 v 50.3732 c 0,4.5438 0.6774,5.0277 4.9309,5.0277 h 3.3837 v 3.8675 c -4.35,-0.1936 -8.7973,-0.3871 -13.1487,-0.3871 -4.3514,0 -8.7985,0.1936 -13.1487,0.3871 v -3.8675 z"
     id="path3073"
     style="fill:#961618" />
  <path
     d="m 490.0893,65.1659 h 3.3837 c 4.2535,0 4.9309,-0.4839 4.9309,-4.9309 V 9.7651 c 0,-4.4476 -0.6774,-4.9309 -4.9309,-4.9309 h -3.3837 V 0.9666 c 4.35,0.1936 8.7985,0.3871 13.1487,0.3871 4.3502,0 8.7984,-0.1937 13.1487,-0.3871 v 3.8675 h -3.3837 c -4.2535,0 -4.9309,0.4833 -4.9309,4.9309 v 54.2407 h 18.4667 c 8.3146,0 9.9586,-1.16 11.893,-6.5749 l 2.4171,-6.8641 h 4.06 l -3.48,18.4667 c -9.8618,-0.1936 -19.82,-0.3871 -29.779,-0.3871 -7.2512,0 -14.4056,0.1936 -21.56,0.3871 v -3.8675 z"
     id="path3075"
     style="fill:#961618" />
  <path
     d="m 428.1326,12.5692 h -0.29 v 47.6657 c 0,4.447 0.6763,4.9309 4.9309,4.9309 h 3.3837 v 3.8675 c -3.5772,-0.1936 -7.2512,-0.3871 -10.8284,-0.3871 -3.5772,0 -7.2512,0.1936 -10.8284,0.3871 v -3.8674 h 3.3837 c 4.2535,0 4.9309,-0.4839 4.9309,-4.9309 V 9.7651 c 0,-4.4476 -0.6774,-4.9309 -4.9309,-4.9309 H 414.5 V 0.9666 c 2.9,0.1936 5.8975,0.3871 8.8941,0.3871 2.9966,0 5.9959,-0.1937 8.8952,-0.3871 a 18.5814,18.5814 0 0 0 2.5138,4.3508 L 470.3829,52.5 h 0.1936 V 9.7651 c 0,-4.4476 -0.6763,-4.9309 -4.9309,-4.9309 h -3.3837 V 0.9666 c 3.674,0.1936 7.2512,0.3871 10.8284,0.3871 3.5772,0 7.1556,-0.1937 10.8297,-0.3871 v 3.8675 h -3.3848 c -4.2535,0 -4.9309,0.4833 -4.9309,4.9309 V 70 h -4.2535 z"
     id="path3077"
     style="fill:#961618" />
  <path
     d="M 380.2607,0 C 400.8541,0 413.52,13.5358 413.52,34.0331 413.52,52.79 402.1111,70 379.39,70 355.8952,70 347,52.3063 347,35.58 347,14.696 359.86,0 380.2607,0 z m -0.9678,65.7453 c 17.1142,0 23.3977,-14.4056 23.3977,-31.9058 0,-15.6626 -6.477,-29.5855 -22.3331,-29.5855 -12.666,0 -22.5278,10.4419 -22.5278,30.4559 3e-4,21.4639 9.5714,31.0354 21.4632,31.0354 z"
     id="path3079"
     style="fill:#961618" />
  <path
     d="M 326,46 H 314 V 58 H 298 V 12 h 5 V 1 h -23 v 11 h 6 v 46 h -6 v 11 h 46 V 46 z"
     id="path3081"
     style="fill:#961618" />
  <path
     d="M 273,21.45 V 1 h -46 v 11 h 6 v 46 h -6 v 11 h 46 V 46 H 261 V 58 H 245 V 39 h 21.8311 V 28.1912 H 245 V 12 h 16 v 9.45 h 12 z"
     id="path3083"
     style="fill:#961618" />
  <path
     d="M 208,39 V 58 H 192 V 12 h 16 v 9.7635 h 12 V 8.7127 A 7.8822,7.8822 0 0 0 212.1585,1 h -24.413 A 7.7981,7.7981 0 0 0 180,8.7127 v 52.65 A 7.8534,7.8534 0 0 0 187.9055,69 H 220 V 28.1912 H 197 V 39 h 11 z"
     id="path3085"
     style="fill:#961618" />
  <path
     d="M 173,21.45 V 1 h -45.7587 v 11 h 6.0318 v 46 h -6.0318 V 69 H 173 V 46 H 161 V 58 H 145 V 39 h 21.8261 V 28.1912 H 145 V 12 h 16 v 9.45 h 12 z"
     id="path3087"
     style="fill:#961618" />
  <path
     d="M 122,12 V 1 H 98 v 11 h 6 v 46 h -6 v 11 h 24 V 58 h -6 V 12 h 6 z"
     id="path3089"
     style="fill:#961618" />
  <path
     d="M 85,1 H 47 v 11 h 6.0247 V 58 H 47 V 69 H 71 V 58 H 65.08 V 39 H 85 c 4.2815,0 8,-2.7662 8,-6.9406 V 8.7127 A 7.8209,7.8209 0 0 0 85.21,1 M 81,28.1912 H 65.08 V 12 H 81 v 16.1912 z"
     id="path3091"
     style="fill:#961618" />
  <path
     d="M 13,28.1912 V 12 h 17 v 9.9518 H 42 V 8.7127 A 7.8291,7.8291 0 0 0 34.2164,1 H 8.7516 A 7.8012,7.8012 0 0 0 1,8.7127 V 39 H 30 V 58 H 13 V 46 H 1 V 61.3628 A 7.7367,7.7367 0 0 0 8.7516,69 H 34.2484 A 7.7159,7.7159 0 0 0 42,61.3628 V 28.1912 H 13 z"
     id="path3093"
     style="fill:#961618" />
</svg>
