<?xml version="1.0" encoding="UTF-8" standalone="no"?>
<!-- Created with Inkscape (http://www.inkscape.org/) -->
<svg xmlns:svg="http://www.w3.org/2000/svg" xmlns="http://www.w3.org/2000/svg" version="1.0" width="921.25983" height="141.73228" id="svg1877">
  <defs id="defs1879"/>
  <g id="layer1">
    <g transform="matrix(3.543307e-5,0,0,3.543307e-5,1.243488e-3,-9.350001e-4)" style="fill-rule:evenodd" id="Ebene_x0020_1">
  
  <path d="M 2641140,1061530 C 2641140,963810 2720330,884730 2817940,884730 C 2915520,884730 2994710,963810 2994710,1061530 C 2994710,1159110 2915520,1238290 2817940,1238290 C 2720330,1238290 2641140,1159110 2641140,1061530 z M 2641140,1061530 C 2641140,963810 2720330,884730 2817940,884730 C 2915520,884730 2994710,963810 2994710,1061530 C 2994710,1159110 2915520,1238290 2817940,1238290 C 2720330,1238290 2641140,1159110 2641140,1061530 z M 2282370,862490 L 2419870,755680 L 2477910,808540 L 2171850,1068860 C 1876470,843960 1486860,640940 1097490,751700 C 996780,785280 865900,865840 855820,986680 C 862510,1228350 1127690,1271980 1292160,1345850 C 1597620,1439830 1903080,1527080 2151450,1758680 C 2262240,1872820 2302520,2027100 2272290,2191710 C 2235390,2399800 2044040,2597710 1839290,2648070 C 1423080,2742190 1023630,2604550 694700,2386380 L 559450,2526100 L 500000,2475890 L 810570,2160630 C 1102570,2365370 1429810,2580940 1812440,2544150 C 1876230,2523990 1940010,2490440 1980290,2426660 C 2037340,2339400 2017190,2218560 1963480,2134620 C 1678180,1812280 1221680,1869480 889370,1637840 C 714820,1513550 590640,1329040 620840,1107380 C 640990,896040 849090,704580 1043790,640940 C 1463350,466400 1943360,607390 2282370,862490 z M 2282370,862490 L 2419870,755680 L 2477910,808540 L 2171850,1068860 C 1876470,843960 1486860,640940 1097490,751700 C 996780,785280 865900,865840 855820,986680 C 862510,1228350 1127690,1271980 1292160,1345850 C 1597620,1439830 1903080,1527080 2151450,1758680 C 2262240,1872820 2302520,2027100 2272290,2191710 C 2235390,2399800 2044040,2597710 1839290,2648070 C 1423080,2742190 1023630,2604550 694700,2386380 L 559450,2526100 L 500000,2475890 L 810570,2160630 C 1102570,2365370 1429810,2580940 1812440,2544150 C 1876230,2523990 1940010,2490440 1980290,2426660 C 2037340,2339400 2017190,2218560 1963480,2134620 C 1678180,1812280 1221680,1869480 889370,1637840 C 714820,1513550 590640,1329040 620840,1107380 C 640990,896040 849090,704580 1043790,640940 C 1463350,466400 1943360,607390 2282370,862490 z M 17034670,2544150 L 17038020,2550840 C 17309890,2560810 17614720,2506720 17866470,2449670 C 17856040,2470530 17777950,2652190 17777950,2652190 L 16534540,2652190 L 17393200,707330 C 17047460,707330 16801310,673250 16519350,847800 L 16368560,936220 L 16389320,580540 L 17873800,580540 L 17034670,2544150 z M 17034670,2544150 L 17038020,2550840 C 17309890,2560810 17614720,2506720 17866470,2449670 C 17856040,2470530 17777950,2652190 17777950,2652190 L 16534540,2652190 L 17393200,707330 C 17047460,707330 16801310,673250 16519350,847800 L 16368560,936220 L 16389320,580540 L 17873800,580540 L 17034670,2544150 z M 6405870,1599080 C 6355510,1555420 6276710,1520390 6206200,1527080 C 6125640,1543750 6048470,1604300 6008190,1678120 C 5890700,1906270 5890700,2262190 6058510,2466940 C 6108870,2510460 6165920,2537420 6239780,2530580 C 6347190,2517290 6437830,2409740 6468030,2309170 C 6527450,2081550 6556910,1787900 6405870,1599080 z M 6854790,2652190 L 6501580,2652190 L 6501580,2503870 C 6350540,2651560 6118950,2722040 5910820,2644830 C 5685950,2554220 5571810,2319240 5555040,2090990 C 5528180,1835790 5625520,1587520 5857110,1449870 C 5998110,1369310 6226360,1342460 6370700,1443040 L 6501580,1540510 L 6501580,1196290 L 6372290,1196290 L 6372290,1095570 L 6854790,1095570 L 6854790,2652190 z M 6405870,1599080 C 6355510,1555420 6276710,1520390 6206200,1527080 C 6125640,1543750 6048470,1604300 6008190,1678120 C 5890700,1906270 5890700,2262190 6058510,2466940 C 6108870,2510460 6165920,2537420 6239780,2530580 C 6347190,2517290 6437830,2409740 6468030,2309170 C 6527450,2081550 6556910,1787900 6405870,1599080 z M 6854790,2652190 L 6501580,2652190 L 6501580,2503870 C 6350540,2651560 6118950,2722040 5910820,2644830 C 5685950,2554220 5571810,2319240 5555040,2090990 C 5528180,1835790 5625520,1587520 5857110,1449870 C 5998110,1369310 6226360,1342460 6370700,1443040 L 6501580,1540510 L 6501580,1196290 L 6372290,1196290 L 6372290,1095570 L 6854790,1095570 L 6854790,2652190 z M 13762920,1095570 L 13762920,1637840 C 13964310,1456600 14251870,1264260 14520400,1401910 C 14698290,1512670 14673060,1715940 14669220,1929880 C 14663120,2274630 14642120,2654910 14642120,2654910 L 14302230,2652190 C 14305580,2343380 14323480,2050720 14293280,1738560 C 14276470,1674780 14253000,1604300 14189210,1570710 C 14011320,1513550 13880410,1658000 13762920,1778840 L 13762920,2654910 L 13380280,2654910 L 13380280,1196290 L 13240660,1196290 L 13240660,1095570 L 13762920,1095570 z M 13762920,1095570 L 13762920,1637840 C 13964310,1456600 14251870,1264260 14520400,1401910 C 14698290,1512670 14673060,1715940 14669220,1929880 C 14663120,2274630 14642120,2654910 14642120,2654910 L 14302230,2652190 C 14305580,2343380 14323480,2050720 14293280,1738560 C 14276470,1674780 14253000,1604300 14189210,1570710 C 14011320,1513550 13880410,1658000 13762920,1778840 L 13762920,2654910 L 13380280,2654910 L 13380280,1196290 L 13240660,1196290 L 13240660,1095570 L 13762920,1095570 z M 20386120,1343100 L 20734330,1343100 L 20753750,1443810 L 20386120,1443810 L 20407020,2652190 L 20025230,2652190 L 20042010,1443810 L 19803820,1443810 L 19803820,1343100 L 20042010,1343100 L 20042010,1288650 C 20042010,1288650 20133280,1254570 20214080,1217290 C 20323110,1166930 20386120,1120800 20386120,1120800 L 20386120,1343100 z M 20386120,1343100 L 20734330,1343100 L 20753750,1443810 L 20386120,1443810 L 20407020,2652190 L 20025230,2652190 L 20042010,1443810 L 19803820,1443810 L 19803820,1343100 L 20042010,1343100 L 20042010,1288650 C 20042010,1288650 20133280,1254570 20214080,1217290 C 20323110,1166930 20386120,1120800 20386120,1120800 L 20386120,1343100 z M 11935550,1482580 C 11930470,1489550 11831870,1622300 11831870,1622300 C 11664060,1491420 11395530,1396170 11184060,1483460 C 11137080,1510170 11106840,1557290 11103500,1607640 C 11100150,1668080 11133700,1718400 11184060,1748640 C 11445890,1869480 11855380,1845970 11929240,2211830 C 11942670,2356180 11878880,2477010 11768120,2564270 C 11509640,2762320 11100150,2715340 10814850,2617970 C 10813580,2613500 10881450,2399310 10881200,2392720 C 10971350,2451290 11057020,2482860 11140430,2510460 C 11294810,2550840 11536490,2607930 11647280,2446670 C 11660710,2413230 11674140,2366250 11650630,2332670 C 11523060,2161470 11291470,2191710 11120270,2104420 C 11006160,2057310 10884440,1974000 10854240,1843120 C 10813580,1730490 10834970,1570710 10922260,1476730 C 11190790,1231700 11650240,1328190 11935550,1482580 z M 11935550,1482580 C 11930470,1489550 11831870,1622300 11831870,1622300 C 11664060,1491420 11395530,1396170 11184060,1483460 C 11137080,1510170 11106840,1557290 11103500,1607640 C 11100150,1668080 11133700,1718400 11184060,1748640 C 11445890,1869480 11855380,1845970 11929240,2211830 C 11942670,2356180 11878880,2477010 11768120,2564270 C 11509640,2762320 11100150,2715340 10814850,2617970 C 10813580,2613500 10881450,2399310 10881200,2392720 C 10971350,2451290 11057020,2482860 11140430,2510460 C 11294810,2550840 11536490,2607930 11647280,2446670 C 11660710,2413230 11674140,2366250 11650630,2332670 C 11523060,2161470 11291470,2191710 11120270,2104420 C 11006160,2057310 10884440,1974000 10854240,1843120 C 10813580,1730490 10834970,1570710 10922260,1476730 C 11190790,1231700 11650240,1328190 11935550,1482580 z M 13178990,1509680 L 13102410,1622300 C 12997360,1473270 12761680,1439830 12664310,1483460 C 12419290,1637840 12419290,1960080 12462910,2221910 C 12493150,2369600 12600560,2550840 12768370,2587770 C 12872440,2587770 13009910,2497030 13060270,2450800 C 13053430,2449030 13186210,2589250 13186210,2589250 C 13186210,2589250 13102310,2652190 13026820,2668330 C 12791880,2758970 12496500,2722040 12311870,2550840 C 12112730,2366110 12040000,2124580 12086970,1866090 C 12127250,1644570 12335380,1436450 12550200,1376050 C 12761680,1318990 13017870,1365330 13178990,1509680 z M 13178990,1509680 L 13102410,1622300 C 12997360,1473270 12761680,1439830 12664310,1483460 C 12419290,1637840 12419290,1960080 12462910,2221910 C 12493150,2369600 12600560,2550840 12768370,2587770 C 12872440,2587770 13009910,2497030 13060270,2450800 C 13053430,2449030 13186210,2589250 13186210,2589250 C 13186210,2589250 13102310,2652190 13026820,2668330 C 12791880,2758970 12496500,2722040 12311870,2550840 C 12112730,2366110 12040000,2124580 12086970,1866090 C 12127250,1644570 12335380,1436450 12550200,1376050 C 12761680,1318990 13017870,1365330 13178990,1509680 z M 24838690,1658000 C 24795060,1590870 24724580,1520390 24654070,1490150 C 24593660,1470030 24519800,1480110 24469480,1510170 C 24271430,1641230 24227800,1866090 24231150,2090990 C 24247920,2295630 24308360,2527370 24519800,2611140 C 24633940,2641480 24741950,2593620 24808490,2503870 C 24996070,2250740 24989370,1889740 24838690,1658000 z M 25137420,1580790 C 25147500,1503580 25181080,1416330 25264990,1389470 C 25322040,1372700 25389170,1389470 25436180,1423020 C 25476460,1456600 25489890,1503580 25499930,1550590 C 25496580,1627800 25449610,1694930 25379090,1721790 C 25335470,1735210 25278410,1728480 25238130,1718400 C 25318690,1903020 25348890,2181630 25241480,2369600 C 25113950,2591120 24885700,2735460 24637290,2745540 C 24546650,2755620 24439240,2762320 24395620,2852950 C 24395620,2879810 24419120,2906660 24445970,2916740 C 24640640,2943590 24902470,2846220 25023310,3047620 C 25056860,3108060 25043430,3191960 25009880,3249020 C 24858840,3450410 24570160,3467220 24345260,3403300 C 24258000,3373240 24183150,3315160 24096890,3242320 L 24229390,3138890 C 24353610,3256380 24529880,3349730 24701080,3292680 C 24741350,3279250 24781630,3245670 24795060,3201900 C 24805140,3148340 24781630,3101220 24734620,3077860 C 24553380,3013930 24187380,3138890 24190870,2906660 C 24187520,2859650 24204300,2816020 24237850,2789170 C 24271430,2758970 24308360,2742190 24348640,2725390 C 24117010,2644830 23888760,2409740 23865250,2154780 C 23825010,1852670 23965970,1570710 24237850,1429750 C 24489600,1302080 24852110,1329040 25070280,1517010 C 25093790,1533820 25113950,1557290 25137420,1580790 z M 24838690,1658000 C 24795060,1590870 24724580,1520390 24654070,1490150 C 24593660,1470030 24519800,1480110 24469480,1510170 C 24271430,1641230 24227800,1866090 24231150,2090990 C 24247920,2295630 24308360,2527370 24519800,2611140 C 24633940,2641480 24741950,2593620 24808490,2503870 C 24996070,2250740 24989370,1889740 24838690,1658000 z M 25137420,1580790 C 25147500,1503580 25181080,1416330 25264990,1389470 C 25322040,1372700 25389170,1389470 25436180,1423020 C 25476460,1456600 25489890,1503580 25499930,1550590 C 25496580,1627800 25449610,1694930 25379090,1721790 C 25335470,1735210 25278410,1728480 25238130,1718400 C 25318690,1903020 25348890,2181630 25241480,2369600 C 25113950,2591120 24885700,2735460 24637290,2745540 C 24546650,2755620 24439240,2762320 24395620,2852950 C 24395620,2879810 24419120,2906660 24445970,2916740 C 24640640,2943590 24902470,2846220 25023310,3047620 C 25056860,3108060 25043430,3191960 25009880,3249020 C 24858840,3450410 24570160,3467220 24345260,3403300 C 24258000,3373240 24183150,3315160 24096890,3242320 L 24229390,3138890 C 24353610,3256380 24529880,3349730 24701080,3292680 C 24741350,3279250 24781630,3245670 24795060,3201900 C 24805140,3148340 24781630,3101220 24734620,3077860 C 24553380,3013930 24187380,3138890 24190870,2906660 C 24187520,2859650 24204300,2816020 24237850,2789170 C 24271430,2758970 24308360,2742190 24348640,2725390 C 24117010,2644830 23888760,2409740 23865250,2154780 C 23825010,1852670 23965970,1570710 24237850,1429750 C 24489600,1302080 24852110,1329040 25070280,1517010 C 25093790,1533820 25113950,1557290 25137420,1580790 z M 2936820,1343100 C 2936820,1343100 2852390,2142340 2946900,2433390 C 2977100,2487090 3030810,2520640 3097940,2507210 C 3232200,2466940 3353040,2386380 3460450,2292390 L 3460450,1443810 L 3259060,1443810 L 3259060,1343100 L 3843090,1343100 L 3843090,2651560 L 3460450,2651560 L 3460450,2450160 C 3386590,2477010 3309420,2547390 3228860,2577690 C 3061010,2651560 2832760,2765660 2658220,2628050 C 2530680,2463590 2534030,2245280 2527300,2030590 C 2523950,1832540 2560880,1631780 2577660,1443810 L 2382990,1443810 L 2379610,1343100 L 2936820,1343100 z M 2936820,1343100 C 2936820,1343100 2852390,2142340 2946900,2433390 C 2977100,2487090 3030810,2520640 3097940,2507210 C 3232200,2466940 3353040,2386380 3460450,2292390 L 3460450,1443810 L 3259060,1443810 L 3259060,1343100 L 3843090,1343100 L 3843090,2651560 L 3460450,2651560 L 3460450,2450160 C 3386590,2477010 3309420,2547390 3228860,2577690 C 3061010,2651560 2832760,2765660 2658220,2628050 C 2530680,2463590 2534030,2245280 2527300,2030590 C 2523950,1832540 2560880,1631780 2577660,1443810 L 2382990,1443810 L 2379610,1343100 L 2936820,1343100 z M 23625220,1527720 C 23678930,1635130 23695730,1775350 23692350,1909610 C 23678930,2174800 23715860,2390360 23692350,2652190 C 23581590,2662240 23314690,2652190 23314690,2652190 C 23314690,2652190 23369270,2020370 23318910,1691440 C 23305490,1644430 23234270,1604300 23187260,1584140 C 23012710,1550590 22875100,1674780 22760960,1798960 L 22760960,2652190 L 22391610,2652190 L 22391610,1443810 L 22244800,1443810 L 22244800,1343100 L 22760960,1343100 L 22760960,1647920 C 22938850,1480110 23163750,1299470 23418850,1343100 C 23492720,1363250 23588320,1450510 23625220,1527720 z M 23625220,1527720 C 23678930,1635130 23695730,1775350 23692350,1909610 C 23678930,2174800 23715860,2390360 23692350,2652190 C 23581590,2662240 23314690,2652190 23314690,2652190 C 23314690,2652190 23369270,2020370 23318910,1691440 C 23305490,1644430 23234270,1604300 23187260,1584140 C 23012710,1550590 22875100,1674780 22760960,1798960 L 22760960,2652190 L 22391610,2652190 L 22391610,1443810 L 22244800,1443810 L 22244800,1343100 L 22760960,1343100 L 22760960,1647920 C 22938850,1480110 23163750,1299470 23418850,1343100 C 23492720,1363250 23588320,1450510 23625220,1527720 z M 19677010,1343100 L 19677010,2652190 L 19295220,2652190 L 19295220,1443810 L 19102280,1443810 L 19102280,1343100 L 19677010,1343100 z M 19677010,1343100 L 19677010,2652190 L 19295220,2652190 L 19295220,1443810 L 19102280,1443810 L 19102280,1343100 L 19677010,1343100 z M 10532870,1164570 L 10532870,1164570 z M 18927730,2406530 L 18927730,2406530 z M 13060390,2470280 L 13060390,2470280 z M 24096890,3242320 L 24096890,3242320 z M 3444790,1061530 C 3444790,963810 3523870,884730 3621450,884730 C 3719170,884730 3798250,963810 3798250,1061530 C 3798250,1159110 3719170,1238290 3621450,1238290 C 3523870,1238290 3444790,1159110 3444790,1061530 z M 3444790,1061530 C 3444790,963810 3523870,884730 3621450,884730 C 3719170,884730 3798250,963810 3798250,1061530 C 3798250,1159110 3719170,1238290 3621450,1238290 C 3523870,1238290 3444790,1159110 3444790,1061530 z M 19306790,1061530 C 19306790,963810 19385980,884730 19483560,884730 C 19581170,884730 19660360,963810 19660360,1061530 C 19660360,1159110 19581170,1238290 19483560,1238290 C 19385980,1238290 19306790,1159110 19306790,1061530 z M 19306790,1061530 C 19306790,963810 19385980,884730 19483560,884730 C 19581170,884730 19660360,963810 19660360,1061530 C 19660360,1159110 19581170,1238290 19483560,1238290 C 19385980,1238290 19306790,1159110 19306790,1061530 z M 8910290,1343100 C 8910290,1343100 8825890,2142340 8920370,2433390 C 8950570,2487090 9004270,2520640 9071400,2507210 C 9205670,2466940 9326510,2386380 9433920,2292390 L 9433920,1443810 L 9232520,1443810 L 9232520,1343100 L 9816550,1343100 L 9816550,2651560 L 9433920,2651560 L 9433920,2450160 C 9360050,2477010 9282880,2547390 9202320,2577690 C 9034470,2651560 8806220,2765660 8631680,2628050 C 8504150,2463590 8507490,2245280 8500760,2030590 C 8497420,1832540 8534350,1631780 8551120,1443810 L 8356460,1443810 L 8353070,1343100 L 8910290,1343100 z M 8910290,1343100 C 8910290,1343100 8825890,2142340 8920370,2433390 C 8950570,2487090 9004270,2520640 9071400,2507210 C 9205670,2466940 9326510,2386380 9433920,2292390 L 9433920,1443810 L 9232520,1443810 L 9232520,1343100 L 9816550,1343100 L 9816550,2651560 L 9433920,2651560 L 9433920,2450160 C 9360050,2477010 9282880,2547390 9202320,2577690 C 9034470,2651560 8806220,2765660 8631680,2628050 C 8504150,2463590 8507490,2245280 8500760,2030590 C 8497420,1832540 8534350,1631780 8551120,1443810 L 8356460,1443810 L 8353070,1343100 L 8910290,1343100 z M 21148190,1343100 C 21148190,1343100 21063790,2142340 21158270,2433390 C 21188470,2487090 21242170,2520640 21309310,2507210 C 21443570,2466940 21564410,2386380 21671960,2292390 L 21671960,1443810 L 21470560,1443810 L 21470560,1343100 L 22054490,1343100 L 22054490,2651560 L 21671960,2651560 L 21671960,2450160 C 21597990,2477010 21520780,2547390 21440220,2577690 C 21272410,2651560 21044160,2765660 20869620,2628050 C 20742190,2463590 20745400,2245280 20738700,2030590 C 20735350,1832540 20772250,1631780 20789060,1443810 L 20594360,1443810 L 20591010,1343100 L 21148190,1343100 z M 21148190,1343100 C 21148190,1343100 21063790,2142340 21158270,2433390 C 21188470,2487090 21242170,2520640 21309310,2507210 C 21443570,2466940 21564410,2386380 21671960,2292390 L 21671960,1443810 L 21470560,1443810 L 21470560,1343100 L 22054490,1343100 L 22054490,2651560 L 21671960,2651560 L 21671960,2450160 C 21597990,2477010 21520780,2547390 21440220,2577690 C 21272410,2651560 21044160,2765660 20869620,2628050 C 20742190,2463590 20745400,2245280 20738700,2030590 C 20735350,1832540 20772250,1631780 20789060,1443810 L 20594360,1443810 L 20591010,1343100 L 21148190,1343100 z M 10555090,1343100 L 10823620,1343100 L 10823620,1443810 L 10555090,1443810 L 10576090,2652190 L 10194300,2652190 L 10211110,1443810 L 9942580,1443810 L 9942580,1343100 L 10211110,1343100 L 10211110,1288650 C 10211110,1288650 10302350,1254570 10383150,1217290 C 10492180,1166930 10555090,1120800 10555090,1120800 L 10555090,1343100 z M 10555090,1343100 L 10823620,1343100 L 10823620,1443810 L 10555090,1443810 L 10576090,2652190 L 10194300,2652190 L 10211110,1443810 L 9942580,1443810 L 9942580,1343100 L 10211110,1343100 L 10211110,1288650 C 10211110,1288650 10302350,1254570 10383150,1217290 C 10492180,1166930 10555090,1120800 10555090,1120800 L 10555090,1343100 z M 4906050,1599080 C 4855690,1555420 4776860,1520390 4706380,1527080 C 4625820,1543750 4548610,1604300 4508330,1678120 C 4390880,1906270 4390880,2262190 4558690,2466940 C 4609050,2510460 4666100,2537420 4739970,2530580 C 4847380,2517290 4937980,2409740 4968220,2309170 C 5027740,2081550 5057090,1787900 4906050,1599080 z M 5354970,2652190 L 5001760,2652190 L 5001760,2503870 C 4850730,2651560 4619130,2722040 4411000,2644830 C 4186100,2554220 4071990,2319240 4055220,2090990 C 4028370,1835790 4125700,1587520 4357300,1449870 C 4498290,1369310 4726540,1342460 4870850,1443040 L 5001760,1540510 L 5001760,1196290 L 4872470,1196290 L 4872470,1095570 L 5354970,1095570 L 5354970,2652190 z M 4906050,1599080 C 4855690,1555420 4776860,1520390 4706380,1527080 C 4625820,1543750 4548610,1604300 4508330,1678120 C 4390880,1906270 4390880,2262190 4558690,2466940 C 4609050,2510460 4666100,2537420 4739970,2530580 C 4847380,2517290 4937980,2409740 4968220,2309170 C 5027740,2081550 5057090,1787900 4906050,1599080 z M 5354970,2652190 L 5001760,2652190 L 5001760,2503870 C 4850730,2651560 4619130,2722040 4411000,2644830 C 4186100,2554220 4071990,2319240 4055220,2090990 C 4028370,1835790 4125700,1587520 4357300,1449870 C 4498290,1369310 4726540,1342460 4870850,1443040 L 5001760,1540510 L 5001760,1196290 L 4872470,1196290 L 4872470,1095570 L 5354970,1095570 L 5354970,2652190 z M 18879770,1682990 C 18846220,1590730 18758190,1490050 18649020,1460590 C 18556790,1431230 18441060,1466680 18370550,1540510 C 18185960,1711570 18191670,1917930 18250450,2211730 L 18879770,1682990 z M 19106390,1674670 L 18317580,2354310 C 18346940,2438210 18411570,2537310 18518980,2564160 C 18695140,2593480 18842100,2519650 18942810,2392090 L 19047610,2505350 C 18869690,2696660 18582020,2762320 18333650,2708610 C 18115450,2658250 17924870,2447410 17864470,2232590 C 17787260,1964060 17853650,1681510 18068470,1506960 C 18256440,1345850 18570220,1269270 18791740,1393450 C 18892450,1447160 19018260,1548720 19106390,1674670 z M 18879770,1682990 C 18846220,1590730 18758190,1490050 18649020,1460590 C 18556790,1431230 18441060,1466680 18370550,1540510 C 18185960,1711570 18191670,1917930 18250450,2211730 L 18879770,1682990 z M 19106390,1674670 L 18317580,2354310 C 18346940,2438210 18411570,2537310 18518980,2564160 C 18695140,2593480 18842100,2519650 18942810,2392090 L 19047610,2505350 C 18869690,2696660 18582020,2762320 18333650,2708610 C 18115450,2658250 17924870,2447410 17864470,2232590 C 17787260,1964060 17853650,1681510 18068470,1506960 C 18256440,1345850 18570220,1269270 18791740,1393450 C 18892450,1447160 19018260,1548720 19106390,1674670 z M 15865550,1682990 C 15831970,1590730 15743830,1490050 15634660,1460590 C 15542440,1431230 15426670,1466680 15356190,1540510 C 15171570,1711570 15177420,1917930 15236100,2211730 L 15865550,1682990 z M 16092040,1674670 L 15303230,2354310 C 15332580,2438210 15397210,2537310 15504620,2564160 C 15680930,2593480 15827740,2519650 15928460,2392090 L 16033360,2505350 C 15855470,2696660 15567670,2762320 15319260,2708610 C 15101090,2658250 14910510,2447410 14850110,2232590 C 14772900,1964060 14839290,1681510 15054120,1506960 C 15242090,1345850 15555860,1269270 15777380,1393450 C 15878100,1447160 16003900,1548720 16092040,1674670 z M 15865550,1682990 C 15831970,1590730 15743830,1490050 15634660,1460590 C 15542440,1431230 15426670,1466680 15356190,1540510 C 15171570,1711570 15177420,1917930 15236100,2211730 L 15865550,1682990 z M 16092040,1674670 L 15303230,2354310 C 15332580,2438210 15397210,2537310 15504620,2564160 C 15680930,2593480 15827740,2519650 15928460,2392090 L 16033360,2505350 C 15855470,2696660 15567670,2762320 15319260,2708610 C 15101090,2658250 14910510,2447410 14850110,2232590 C 14772900,1964060 14839290,1681510 15054120,1506960 C 15242090,1345850 15555860,1269270 15777380,1393450 C 15878100,1447160 16003900,1548720 16092040,1674670 z M 8111920,1682990 C 8078330,1590730 7990200,1490050 7881160,1460590 C 7788800,1431230 7673180,1466680 7602700,1540510 C 7418080,1711570 7423790,1917930 7482460,2211730 L 8111920,1682990 z M 8338400,1674670 L 7549590,2354310 C 7579090,2438210 7643580,2537310 7750990,2564160 C 7927290,2593480 8074100,2519650 8174820,2392090 L 8279730,2505350 C 8101840,2696660 7814170,2762320 7565770,2708610 C 7347600,2658250 7156880,2447410 7096480,2232590 C 7019270,1964060 7085760,1681510 7300590,1506960 C 7488560,1345850 7802230,1269270 8023750,1393450 C 8124460,1447160 8250410,1548720 8338400,1674670 z M 8111920,1682990 C 8078330,1590730 7990200,1490050 7881160,1460590 C 7788800,1431230 7673180,1466680 7602700,1540510 C 7418080,1711570 7423790,1917930 7482460,2211730 L 8111920,1682990 z M 8338400,1674670 L 7549590,2354310 C 7579090,2438210 7643580,2537310 7750990,2564160 C 7927290,2593480 8074100,2519650 8174820,2392090 L 8279730,2505350 C 8101840,2696660 7814170,2762320 7565770,2708610 C 7347600,2658250 7156880,2447410 7096480,2232590 C 7019270,1964060 7085760,1681510 7300590,1506960 C 7488560,1345850 7802230,1269270 8023750,1393450 C 8124460,1447160 8250410,1548720 8338400,1674670 z " style="fill:black;fill-rule:nonzero" id="path10"/>

 </g>
  </g>
</svg>