<?xml version="1.0" encoding="UTF-8" standalone="no"?>
<!-- Created with Inkscape (http://www.inkscape.org/) -->

<svg
   xmlns:dc="http://purl.org/dc/elements/1.1/"
   xmlns:cc="http://creativecommons.org/ns#"
   xmlns:rdf="http://www.w3.org/1999/02/22-rdf-syntax-ns#"
   xmlns:svg="http://www.w3.org/2000/svg"
   xmlns="http://www.w3.org/2000/svg"
   xmlns:sodipodi="http://sodipodi.sourceforge.net/DTD/sodipodi-0.dtd"
   xmlns:inkscape="http://www.inkscape.org/namespaces/inkscape"
   version="1.1"
   id="svg3825"
   width="453.44"
   height="217.28"
   viewBox="0 0 453.44 217.28"
   sodipodi:docname="20170815_xl_1144-taz-logo-2017.svg"
   inkscape:version="0.92.2 5c3e80d, 2017-08-06">
  <metadata
     id="metadata3831">
    <rdf:RDF>
      <cc:Work
         rdf:about="">
        <dc:format>image/svg+xml</dc:format>
        <dc:type
           rdf:resource="http://purl.org/dc/dcmitype/StillImage" />
        <dc:title></dc:title>
      </cc:Work>
    </rdf:RDF>
  </metadata>
  <defs
     id="defs3829" />
  <sodipodi:namedview
     pagecolor="#ffffff"
     bordercolor="#666666"
     borderopacity="1"
     objecttolerance="10"
     gridtolerance="10"
     guidetolerance="10"
     inkscape:pageopacity="0"
     inkscape:pageshadow="2"
     inkscape:window-width="1600"
     inkscape:window-height="839"
     id="namedview3827"
     showgrid="false"
     fit-margin-top="0"
     fit-margin-left="0"
     fit-margin-right="0"
     fit-margin-bottom="0"
     inkscape:zoom="1.7590341"
     inkscape:cx="212.68391"
     inkscape:cy="95.705685"
     inkscape:window-x="0"
     inkscape:window-y="0"
     inkscape:window-maximized="1"
     inkscape:current-layer="svg3825" />
  <!--rect
     style="opacity:1;fill:#ffffff;fill-opacity:1;stroke:none;stroke-width:4;stroke-linejoin:miter;stroke-miterlimit:4;stroke-dasharray:none;stroke-opacity:0.90452259;paint-order:stroke fill markers"
     id="rect4661"
     width="382.02783"
     height="161.45224"
     x="38.089085"
     y="27.971565"
     ry="0.85739201" /-->
  <path
     style="fill:#e30037;stroke-width:1;fill-opacity:1"
     d="M 0,108.64 V 0 H 226.72 453.44 V 108.64 217.28 H 226.72 0 Z m 162.06544,58.20647 c 7.1381,-1.31776 13.47008,-4.87384 19.74586,-11.08941 1.34822,-1.33529 2.53622,-2.34287 2.64,-2.23909 0.10378,0.10378 0.1887,2.7567 0.1887,5.89536 V 165.12 h 11.85359 11.85359 l -0.11535,-34 c -0.11346,-33.441978 -0.12672,-34.052198 -0.80766,-37.180578 -1.75551,-8.06511 -4.36988,-13.19759 -8.90204,-17.47631 -4.62918,-4.37033 -10.32257,-6.93842 -18.84213,-8.49903 -4.88893,-0.89555 -18.04698,-0.81114 -23.36,0.14986 -9.63466,1.74268 -16.2598,4.883 -21.13735,10.01908 -2.54584,2.68078 -4.18633,5.20732 -5.61077,8.64125 -1.2691,3.0594 -2.58374,8.39903 -2.09266,8.49966 0.73048,0.14969 20.98307,2.00607 21.88564,2.00607 0.82233,0 0.98177,-0.1624 1.33525,-1.36 1.92334,-6.51626 7.58702,-9.84722 16.72306,-9.83527 5.71871,0.008 9.80356,1.33815 12.91666,4.20772 2.65705,2.44917 3.66017,5.71858 3.66017,11.929328 v 3.95028 l -2.8,0.18767 c -1.54,0.10321 -4.888,0.27119 -7.44,0.37327 -16.50379,0.66017 -27.75556,2.82632 -36,6.93061 -4.87927,2.42902 -9.21503,6.22632 -11.96199,10.4764 -4.0922,6.33142 -4.95038,17.94891 -1.92991,26.1257 2.5157,6.81031 8.44207,12.51692 15.59386,15.01561 6.56367,2.2932 15.36029,2.90232 22.60348,1.56515 z m -6.85768,-18.85812 c -3.5271,-0.99077 -6.21232,-3.29219 -7.19039,-6.16266 -0.71671,-2.10343 -0.64037,-5.93531 0.17056,-8.56078 1.5108,-4.89139 6.69258,-7.86647 16.10848,-9.24857 3.32768,-0.48845 13.26087,-1.13583 17.43276,-1.13615 l 2.36917,-1.9e-4 -0.20293,4.4 c -0.33681,7.3029 -1.55772,10.39013 -5.80372,14.67557 -2.0805,2.09982 -3.09121,2.84251 -5.29169,3.88845 -3.87497,1.84186 -6.15464,2.34377 -11.36,2.50111 -3.39495,0.10262 -4.90439,0.0162 -6.23224,-0.35678 z m -48.29662,18.27767 c 3.26966,-0.50645 8.2199,-1.66786 8.89975,-2.08803 0.32236,-0.19923 0.0468,-2.14252 -1.29228,-9.11275 -0.93611,-4.87273 -1.77775,-8.98045 -1.87032,-9.12827 -0.0926,-0.14782 -1.17629,-0.078 -2.40829,0.15521 -9.83124,1.86077 -15.996617,0.0687 -18.162057,-5.27913 l -0.71794,-1.77305 -0.0895,-24.56 -0.0895,-24.559998 h 10.889507 10.88951 v -9.92 -9.92 h -10.88 -10.879997 v -12.64 -12.64 h -12.8 -12.8 v 12.64 12.64 h -7.36 -7.360003 v 9.92 9.92 h 7.329533 7.32954 L 65.684653,115.28 c 0.1224,21.32513 0.22731,25.84368 0.65942,28.4 1.55828,9.2187 4.58298,14.70839 10.13918,18.40215 3.56666,2.37111 7.30712,3.67316 12.95677,4.51023 3.57215,0.52927 13.095677,0.35136 17.471137,-0.32636 z M 299.2,164.64964 c 0,-0.58057 1.84135,-16.19372 2.10511,-17.84964 l 0.19115,-1.2 h -24.18813 c -13.30347,0 -24.18813,-0.0684 -24.18813,-0.15207 0,-0.0836 10.368,-13.18622 23.04,-29.11685 L 299.2,87.366302 v -8.64315 -8.64315 h -38.88 -38.88 v 9.91787 9.91786 l 22.71289,0.0821 22.71289,0.0821 -23.19289,29.019888 -23.19289,29.01989 v 8.50011 8.50011 h 39.36 c 34.41498,0 39.36,-0.0591 39.36,-0.47036 z m 62.8583,-5.56847 c 4.39706,-1.56053 7.03581,-3.69716 9.28429,-7.51764 2.08093,-3.53581 2.97779,-5.72305 3.53079,-8.61068 0.40806,-2.13094 0.39638,-2.22449 -0.69908,-5.6 -2.41356,-7.43709 -2.58419,-11.13028 -0.84608,-18.31285 1.16823,-4.82768 -0.26598,-8.02991 -4.5624,-10.18658 -0.79494,-0.39904 -1.45436,-1.01405 -1.66896,-1.55655 -0.1951,-0.49328 -0.72364,-1.89641 -1.17449,-3.11806 -1.92112,-5.205498 -4.24483,-6.438518 -9.44237,-5.010398 -7.95462,2.185698 -11.76794,3.640498 -15.99501,6.102238 -0.61325,0.35714 -1.48787,0.64935 -1.94361,0.64935 -3.48519,0 -11.44196,2.1962 -14.13744,3.90217 -4.34666,2.75095 -8.31817,9.41494 -8.35418,14.01783 -0.0307,3.92805 2.70941,7.99397 6.71699,9.9669 1.91623,0.94335 2.17287,0.98872 4.4336,0.78386 1.46701,-0.13294 2.39965,-0.0983 2.39965,0.089 0,0.16854 1.43866,2.46746 3.19702,5.1087 2.98717,4.48702 3.30928,4.85536 4.90647,5.61095 2.00096,0.94661 6.05897,2.1206 7.33008,2.1206 0.50624,0 0.88643,0.17543 0.88643,0.40903 0,0.22496 0.4847,1.41296 1.07709,2.64 2.07417,4.29627 5.3983,7.97753 8.12115,8.99365 1.57069,0.58616 4.50541,0.38255 6.94006,-0.48151 z m 24.93616,-20.07516 c 0.9704,-0.33065 1.98948,-1.0301 2.857,-1.96094 0.74169,-0.79583 2.29846,-2.40054 3.45945,-3.56601 2.39056,-2.39976 3.4032,-4.01791 4.53027,-7.23906 0.75671,-2.16268 0.76864,-2.32746 0.34506,-4.7739 -1.15283,-6.65833 -4.67552,-10.11491 -9.35139,-9.17586 -3.02083,0.60667 -4.23523,1.87143 -5.64877,5.88311 -0.53843,1.52805 -1.47728,3.28428 -2.42509,4.53629 -2.02169,2.67058 -2.75635,4.1222 -3.19718,6.31719 -0.90858,4.52418 2.91283,10.43119 6.7792,10.47903 0.62864,0.008 1.82179,-0.21715 2.65145,-0.49985 z M 400.884,110.77242 c 1.34954,-1.5889 1.996,-3.34259 1.996,-5.41457 0,-2.20964 -0.48723,-2.86261 -1.23302,-1.65247 -0.2626,0.42604 -1.46058,1.72045 -2.66221,2.87646 -2.34899,2.25985 -2.79635,3.5062 -1.62477,4.52681 1.2537,1.09214 2.40403,0.98239 3.524,-0.33623 z m -15.42278,-3.60227 c 1.04435,-0.19241 2.64272,-0.70116 3.55196,-1.13055 3.01162,-1.42222 7.14084,-6.637298 8.58266,-10.839598 0.64598,-1.88284 1.03242,-9.013 0.58099,-10.72 -0.29088,-1.09988 -0.33321,-1.12391 -2.35651,-1.33734 -1.13318,-0.11954 -2.92432,-0.51199 -3.98032,-0.87213 -1.056,-0.36014 -2.47584,-0.65834 -3.1552,-0.66266 -1.91136,-0.0122 -4.61437,1.62497 -7.38698,4.47408 -2.76681,2.84318 -4.15385,5.43762 -5.29363,9.90166 -0.58195,2.27925 -0.63971,2.99006 -0.36819,4.531438 0.63427,3.60087 2.40925,5.7461 5.42659,6.55855 1.90608,0.51324 2.11248,0.51777 4.39863,0.0966 z M 339.8737,98.586752 c 3.9671,-1.49972 6.92032,-4.43443 9.3406,-9.28208 1.25252,-2.50869 1.3457,-2.87711 1.3457,-5.32031 0,-2.337 -0.12086,-2.87508 -1.10182,-4.90467 l -1.10183,-2.27969 -2.57817,-0.0184 c -1.41799,-0.0101 -3.58618,-0.28258 -4.81818,-0.60541 -2.49792,-0.65453 -3.37296,-0.50029 -6.72,1.18454 -5.87946,2.9596 -7.32518,5.25342 -7.31066,11.59932 0.0118,5.23597 1.32957,8.83233 3.6784,10.04022 1.50592,0.7744 6.74176,0.54076 9.26596,-0.41347 z m 27.07641,-5.92023 c 0.5056,-0.42542 2.38829,-2.54942 4.18378,-4.72 1.79549,-2.17059 3.76243,-4.26763 4.37101,-4.66008 1.42131,-0.91659 2.05868,-2.92943 2.30736,-7.28644 0.33046,-5.79017 -0.5777,-8.17538 -3.89882,-10.24 -1.35146,-0.84018 -1.83219,-0.95841 -3.8512,-0.94727 -2.01341,0.0111 -2.62102,0.16795 -4.77504,1.23253 -2.84566,1.4064 -5.80157,4.11464 -7.72173,7.07474 -1.08259,1.66892 -1.2415,2.15015 -1.2152,3.68 0.0166,0.968 0.35888,3.056 0.76051,4.64 0.52858,2.08473 0.72343,3.73995 0.70554,5.99426 -0.0227,2.86813 0.0381,3.1889 0.76998,4.05864 1.05034,1.24825 2.81261,1.81212 5.94916,1.90352 1.15564,0.0337 1.70432,-0.13217 2.41465,-0.7299 z m 31.20173,-14.25436 c 0.48467,-0.38123 0.94896,-1.22963 1.18205,-2.16 0.21113,-0.84269 0.51939,-2.05287 0.68499,-2.68929 0.65165,-2.50409 0.15638,-2.49741 -3.03792,0.041 -2.05974,1.6368 -2.42096,2.06868 -2.42096,2.89455 0,1.11036 1.2289,2.5416 2.1823,2.5416 0.33626,0 0.97056,-0.28253 1.40954,-0.62784 z m -48.58438,-6.44373 c 0.46956,-0.36936 1.22608,-1.40633 1.68115,-2.30437 0.45507,-0.89803 1.12406,-2.03406 1.48665,-2.52449 0.3626,-0.49044 0.59012,-0.96085 0.5056,-1.04537 -0.29632,-0.29633 -4.91984,1.46343 -5.67763,2.16098 -1.13363,1.04349 -1.7055,2.57937 -1.32905,3.56951 0.24806,0.65244 0.52668,0.81531 1.39475,0.81531 0.61721,0 1.45273,-0.28946 1.93853,-0.67157 z m 30.11011,-12.01517 c 0.79334,-1.69771 1.44243,-3.13771 1.44243,-3.2 0,-0.72543 -5.83395,1.58786 -6.4751,2.56751 -0.92004,1.40578 0.64518,3.71923 2.51628,3.71923 1.04468,0 1.11325,-0.0841 2.51639,-3.08674 z"
     id="path3835"
     inkscape:connector-curvature="0" />
</svg>
